<svg xmlns="http://www.w3.org/2000/svg" viewBox="0 0 180 180">
  <defs>
    <linearGradient id="bg" x1="0" y1="0" x2="0" y2="1">
      <stop offset="0" stop-color="#3b2568"/>
      <stop offset="1" stop-color="#1c1038"/>
    </linearGradient>
    <radialGradient id="shade" cx=".38" cy=".32" r="1">
      <stop offset="0" stop-color="#ffffff" stop-opacity=".9"/>
      <stop offset=".55" stop-color="#ffffff" stop-opacity="0"/>
      <stop offset="1" stop-color="#c9a37e" stop-opacity=".55"/>
    </radialGradient>
  </defs>
  <rect width="180" height="180" rx="40" fill="url(#bg)"/>
  <rect x="10" y="130" width="160" height="40" rx="16" fill="#72b954"/>
  <ellipse cx="90" cy="132" rx="70" ry="10" fill="#7cc35e"/>
  <ellipse cx="90" cy="126" rx="34" ry="8" fill="rgba(20,10,40,.4)"/>
  <circle cx="90" cy="84" r="40" fill="#fff8ee"/>
  <circle cx="90" cy="84" r="40" fill="url(#shade)"/>
  <circle cx="79" cy="86" r="5" fill="#3a2f45"/>
  <circle cx="103" cy="86" r="5" fill="#3a2f45"/>
  <circle cx="80.5" cy="84.5" r="1.7" fill="#fff"/>
  <circle cx="104.5" cy="84.5" r="1.7" fill="#fff"/>
  <circle cx="71" cy="95" r="5" fill="#f7b1a9" opacity=".8"/>
  <circle cx="111" cy="95" r="5" fill="#f7b1a9" opacity=".8"/>
  <path d="M84 97 Q90 103 96 97" stroke="#3a2f45" stroke-width="3" fill="none" stroke-linecap="round"/>
  <path d="M132 30 L132 78" stroke="#f3ead8" stroke-width="5" stroke-linecap="round"/>
  <path d="M132 30 Q156 34 164 42 Q150 48 132 50 Z" fill="#ff5f6e"/>
  <path d="M40 26 l5.5 11 12 1.8 -8.7 8.6 2 12.1 -10.8-5.6 -10.8 5.6 2-12.1 -8.7-8.6 12-1.8 z" fill="#ffd23e"/>
</svg>
