<svg xmlns="http://www.w3.org/2000/svg" viewBox="0 0 180 180">
  <defs>
    <linearGradient id="sky" x1="0" y1="0" x2="0" y2="1">
      <stop offset="0" stop-color="#8fd3ff"/>
      <stop offset="1" stop-color="#ffe9f7"/>
    </linearGradient>
  </defs>
  <rect width="180" height="180" rx="40" fill="url(#sky)"/>
  <circle cx="150" cy="30" r="12" fill="#ffe066"/>
  <rect x="20" y="118" width="140" height="34" rx="10" fill="#8ee08a"/>
  <rect x="20" y="118" width="140" height="10" rx="5" fill="#a8f0a2"/>
  <circle cx="70" cy="100" r="30" fill="#fff"/>
  <path d="M40 100 a30 30 0 0 1 60 0 z" transform="rotate(180 70 100)" fill="#ff5a5a"/>
  <circle cx="60" cy="96" r="4.5" fill="#4a3524"/>
  <circle cx="80" cy="96" r="4.5" fill="#4a3524"/>
  <path d="M60 108 q10 8 20 0" stroke="#4a3524" stroke-width="4" fill="none" stroke-linecap="round"/>
  <path d="M125 40 l6 12 13 2 -9 9 2 13 -12 -6 -12 6 2 -13 -9 -9 13 -2 z" fill="#ffd93b" stroke="#f0a800" stroke-width="2"/>
  <rect x="118" y="86" width="6" height="46" rx="3" fill="#fff"/>
  <path d="M124 88 l30 10 -30 10 z" fill="#ff6fa5"/>
</svg>
