<svg xmlns="http://www.w3.org/2000/svg" viewBox="0 0 180 180">
  <defs>
    <linearGradient id="sky" x1="0" y1="0" x2="0" y2="1">
      <stop offset="0" stop-color="#4fb3f5"/>
      <stop offset="1" stop-color="#c9edff"/>
    </linearGradient>
    <radialGradient id="body" cx="0.38" cy="0.35" r="0.9">
      <stop offset="0" stop-color="#ffc0e0"/>
      <stop offset="0.55" stop-color="#ff9ecf"/>
      <stop offset="1" stop-color="#f470ae"/>
    </radialGradient>
  </defs>
  <rect width="180" height="180" rx="40" fill="url(#sky)"/>
  <path d="M14 60 l14 4 -14 4 -4 14 -4 -14 -14 -4 14 -4 4 -14z" transform="translate(30,-14)" fill="#ffd93d"/>
  <path d="M14 60 l10 3 -10 3 -3 10 -3 -10 -10 -3 10 -3 3 -10z" transform="translate(120,-24)" fill="#fff" opacity="0.9"/>
  <ellipse cx="90" cy="152" rx="52" ry="10" fill="rgba(20,60,110,0.25)"/>
  <circle cx="90" cy="96" r="52" fill="url(#body)"/>
  <ellipse cx="73" cy="88" rx="7" ry="12" fill="#31344b"/>
  <ellipse cx="107" cy="88" rx="7" ry="12" fill="#31344b"/>
  <ellipse cx="70.8" cy="84" rx="2.8" ry="4.4" fill="#fff"/>
  <ellipse cx="104.8" cy="84" rx="2.8" ry="4.4" fill="#fff"/>
  <ellipse cx="59" cy="104" rx="9" ry="6" fill="#ff6fa5"/>
  <ellipse cx="121" cy="104" rx="9" ry="6" fill="#ff6fa5"/>
  <path d="M80 108 Q90 118 100 108" fill="none" stroke="#31344b" stroke-width="5" stroke-linecap="round"/>
</svg>
